<svg width="241" height="241" viewBox="0 0 241 241" fill="none" xmlns="http://www.w3.org/2000/svg">
<g clip-path="url(#clip0_2001_223891)">
<path fill-rule="evenodd" clip-rule="evenodd" d="M32.4346 152.183C32.4346 152.183 60.0163 196.548 99.4737 191.399C116.79 189.139 134.894 189.384 150.856 189.6C156.854 189.681 162.549 189.758 167.787 189.697C185.223 195.49 211.094 202.114 226.392 196.802C232.366 194.728 223.132 190.081 213.692 185.33C210.344 183.645 206.97 181.946 204.239 180.345C202.424 179.281 200.777 178.242 199.282 177.234C199.268 176.877 199.238 176.509 199.191 176.13C196.705 156.169 201.112 139.17 204.988 124.219C209.917 105.208 213.987 89.5075 201.94 75.2324L32.4346 152.183Z" fill="url(#paint0_linear_2001_223891)"/>
<g filter="url(#filter0_i_2001_223891)">
<path d="M80.0575 164.762C97.6107 164.762 122.295 155.99 136.916 153.065C248.034 108.553 -35.7098 63.5387 20.6 139.744C35.4244 159.807 55.6896 164.762 80.0575 164.762Z" fill="#BBEDFE"/>
</g>
<g filter="url(#filter1_i_2001_223891)">
<path d="M77.4601 93.5096C34.8268 98.109 -0.787395 107.498 18.2674 129.255C25.9863 138.069 43.7335 148.217 70.3098 151.116C88.1796 153.066 122.295 155.99 136.916 153.066C205.073 124.429 212.788 86.0777 202.69 75.4178C192.592 64.7579 169.892 83.5377 77.4601 93.5096Z" fill="#346A82"/>
</g>
<path d="M155.489 129.304C147.567 120.357 130.321 107.644 118.679 99.485C114.728 96.7159 116.26 90.395 121.051 89.821L140.755 87.4602C144.597 86.9998 148.814 91.1264 150.307 94.697C151.28 97.0225 152.885 99.8057 155.489 103.002C160.558 109.226 160.374 134.822 155.489 129.304Z" fill="#346A82"/>
<g filter="url(#filter2_i_2001_223891)">
<path d="M159.692 40.0336C142.028 47.5776 124.654 77.549 116.707 92.8566C114.758 96.6119 118.036 100.758 122.18 99.9039L145.339 95.131C148.777 94.4224 151.106 90.2703 151.011 86.7613C150.897 82.5259 151.547 76.1527 154.37 67.1124C157.974 55.5706 167.569 36.6693 159.692 40.0336Z" fill="#346A82"/>
</g>
<path d="M193.366 159.39C161.152 173.135 136.217 156.768 125.738 147.695C122.991 145.318 124.029 141.147 127.457 139.945L152.606 131.127C156.674 129.7 161.118 133.855 161.828 138.107C162.645 142.999 165.562 148.232 173.688 150.483C184.461 152.349 201.244 156.028 193.366 159.39Z" fill="#346A82"/>
<path d="M78.6031 143.598C78.5243 144.678 77.824 145.692 76.5923 146.428C75.3631 147.163 73.6663 147.575 71.7971 147.438C69.9279 147.302 68.3088 146.649 67.1992 145.743C66.0873 144.836 65.5414 143.732 65.6201 142.652C65.6989 141.572 66.3992 140.558 67.6309 139.822C68.8601 139.087 70.5569 138.675 72.4261 138.812C74.2953 138.948 75.9144 139.601 77.024 140.507C78.1359 141.414 78.6818 142.518 78.6031 143.598Z" fill="#FCD1AA" stroke="#313334" stroke-width="1.60474"/>
<path d="M76.3976 143.437C76.3628 143.916 76.0027 144.453 75.1788 144.879C74.3689 145.298 73.2239 145.536 71.9425 145.443C70.6611 145.35 69.5628 144.948 68.8222 144.416C68.0688 143.875 67.7906 143.29 67.8254 142.812C67.8603 142.334 68.2204 141.796 69.0442 141.37C69.8541 140.952 70.9992 140.713 72.2806 140.807C73.5619 140.9 74.6603 141.302 75.4009 141.834C76.1542 142.375 76.4325 142.959 76.3976 143.437Z" fill="#313334" stroke="#313334" stroke-width="1.60474"/>
<ellipse cx="70.5913" cy="141.84" rx="2.22077" ry="1.3615" transform="rotate(4.17038 70.5913 141.84)" fill="#BBEDFE"/>
<path d="M48.845 156.972C35.2952 151.383 28.3657 146.566 22.2119 141.88C24.9783 145.775 29.6675 151.566 39.6104 156.972C50.0306 162.639 68.2165 165.366 75.8819 164.606C75.0351 164.606 61.7266 162.286 48.845 156.972Z" fill="#EFA4A4"/>
<g filter="url(#filter3_i_2001_223891)">
<path d="M52.0916 158.18L57.1679 159.462L56.6978 161.323C56.4799 162.186 55.167 162.598 53.7652 162.244C52.3634 161.89 51.4036 160.904 51.6214 160.042L52.0916 158.18Z" fill="#BBEDFE"/>
</g>
<g filter="url(#filter4_i_2001_223891)">
<path d="M47.7637 155.697L52.0769 157.57L51.1264 159.759C50.686 160.773 49.3634 161.176 48.1723 160.659C46.9813 160.142 46.3727 158.9 46.8131 157.886L47.7637 155.697Z" fill="#BBEDFE"/>
</g>
<g filter="url(#filter5_i_2001_223891)">
<path d="M42.3694 153.796L47.0444 154.303L46.7513 157.005C46.6155 158.256 45.4589 159.158 44.168 159.018C42.877 158.878 41.9406 157.749 42.0763 156.498L42.3694 153.796Z" fill="#BBEDFE"/>
</g>
<g filter="url(#filter6_i_2001_223891)">
<path d="M34.2997 149.903L38.3249 150.882L37.8115 152.992C37.5736 153.97 36.4797 154.543 35.3681 154.273C34.2566 154.002 33.5483 152.99 33.7862 152.013L34.2997 149.903Z" fill="#BBEDFE"/>
</g>
<g filter="url(#filter7_i_2001_223891)">
<path d="M32.7767 147.466L33.9571 149.903L32.0028 150.85C31.0974 151.288 30.0991 151.098 29.7732 150.425C29.4473 149.753 29.917 148.852 30.8225 148.413L32.7767 147.466Z" fill="#BBEDFE"/>
</g>
<g filter="url(#filter8_i_2001_223891)">
<path d="M38.8579 150.384L42.6064 153.223L40.9654 155.39C40.2051 156.394 38.7497 156.572 37.7146 155.788C36.6794 155.004 36.4567 153.554 37.217 152.55L38.8579 150.384Z" fill="#BBEDFE"/>
</g>
<g filter="url(#filter9_i_2001_223891)">
<path d="M22.6383 141.937L24.6579 143.271L23.5995 144.873C23.1092 145.615 22.2596 145.919 21.7019 145.55C21.1442 145.182 21.0896 144.281 21.58 143.539L22.6383 141.937Z" fill="#BBEDFE"/>
</g>
<g filter="url(#filter10_i_2001_223891)">
<path d="M24.8904 143.972L27.3003 144.583L26.8282 146.445C26.6095 147.307 25.8928 147.869 25.2273 147.7C24.5618 147.531 24.1997 146.696 24.4184 145.833L24.8904 143.972Z" fill="#BBEDFE"/>
</g>
<g filter="url(#filter11_i_2001_223891)">
<path d="M28.8911 145.242L30.8145 147.76L29.2887 148.925C28.5817 149.465 27.5781 149.339 27.047 148.644C26.5158 147.949 26.6584 146.947 27.3653 146.407L28.8911 145.242Z" fill="#BBEDFE"/>
</g>
<g filter="url(#filter12_i_2001_223891)">
<path d="M57.1678 159.288L61.904 160.018L61.6633 161.579C61.5517 162.302 60.4011 162.725 59.0932 162.523C57.7853 162.322 56.8155 161.572 56.9271 160.849L57.1678 159.288Z" fill="#BBEDFE"/>
</g>
<g filter="url(#filter13_i_2001_223891)">
<path d="M62.0942 161.177L66.7636 161.418L66.6601 163.42C66.6121 164.347 65.528 165.045 64.2386 164.978C62.9492 164.912 61.9428 164.106 61.9907 163.178L62.0942 161.177Z" fill="#BBEDFE"/>
</g>
</g>
<defs>
<filter id="filter0_i_2001_223891" x="13.1208" y="98.6758" width="155.026" height="71.2612" filterUnits="userSpaceOnUse" color-interpolation-filters="sRGB">
<feFlood flood-opacity="0" result="BackgroundImageFix"/>
<feBlend mode="normal" in="SourceGraphic" in2="BackgroundImageFix" result="shape"/>
<feColorMatrix in="SourceAlpha" type="matrix" values="0 0 0 0 0 0 0 0 0 0 0 0 0 0 0 0 0 0 127 0" result="hardAlpha"/>
<feOffset dx="5.17473" dy="5.17473"/>
<feGaussianBlur stdDeviation="10.3495"/>
<feComposite in2="hardAlpha" operator="arithmetic" k2="-1" k3="1"/>
<feColorMatrix type="matrix" values="0 0 0 0 0.733333 0 0 0 0 0.929412 0 0 0 0 0.996078 0 0 0 1 0"/>
<feBlend mode="normal" in2="shape" result="effect1_innerShadow_2001_223891"/>
</filter>
<filter id="filter1_i_2001_223891" x="13" y="72.2427" width="198.49" height="87.2348" filterUnits="userSpaceOnUse" color-interpolation-filters="sRGB">
<feFlood flood-opacity="0" result="BackgroundImageFix"/>
<feBlend mode="normal" in="SourceGraphic" in2="BackgroundImageFix" result="shape"/>
<feColorMatrix in="SourceAlpha" type="matrix" values="0 0 0 0 0 0 0 0 0 0 0 0 0 0 0 0 0 0 127 0" result="hardAlpha"/>
<feOffset dx="5.17473" dy="5.17473"/>
<feGaussianBlur stdDeviation="10.3495"/>
<feComposite in2="hardAlpha" operator="arithmetic" k2="-1" k3="1"/>
<feColorMatrix type="matrix" values="0 0 0 0 0.734427 0 0 0 0 0.930482 0 0 0 0 0.995833 0 0 0 1 0"/>
<feBlend mode="normal" in2="shape" result="effect1_innerShadow_2001_223891"/>
</filter>
<filter id="filter2_i_2001_223891" x="116.13" y="39.6384" width="46.5847" height="65.5531" filterUnits="userSpaceOnUse" color-interpolation-filters="sRGB">
<feFlood flood-opacity="0" result="BackgroundImageFix"/>
<feBlend mode="normal" in="SourceGraphic" in2="BackgroundImageFix" result="shape"/>
<feColorMatrix in="SourceAlpha" type="matrix" values="0 0 0 0 0 0 0 0 0 0 0 0 0 0 0 0 0 0 127 0" result="hardAlpha"/>
<feOffset dy="5.17473"/>
<feGaussianBlur stdDeviation="2.58736"/>
<feComposite in2="hardAlpha" operator="arithmetic" k2="-1" k3="1"/>
<feColorMatrix type="matrix" values="0 0 0 0 0.733333 0 0 0 0 0.929412 0 0 0 0 0.996078 0 0 0 1 0"/>
<feBlend mode="normal" in2="shape" result="effect1_innerShadow_2001_223891"/>
</filter>
<filter id="filter3_i_2001_223891" x="51.5906" y="158.18" width="6.87095" height="4.19116" filterUnits="userSpaceOnUse" color-interpolation-filters="sRGB">
<feFlood flood-opacity="0" result="BackgroundImageFix"/>
<feBlend mode="normal" in="SourceGraphic" in2="BackgroundImageFix" result="shape"/>
<feColorMatrix in="SourceAlpha" type="matrix" values="0 0 0 0 0 0 0 0 0 0 0 0 0 0 0 0 0 0 127 0" result="hardAlpha"/>
<feOffset dx="1.29368"/>
<feGaussianBlur stdDeviation="0.646841"/>
<feComposite in2="hardAlpha" operator="arithmetic" k2="-1" k3="1"/>
<feColorMatrix type="matrix" values="0 0 0 0 0.733333 0 0 0 0 0.929412 0 0 0 0 0.996078 0 0 0 1 0"/>
<feBlend mode="normal" in2="shape" result="effect1_innerShadow_2001_223891"/>
</filter>
<filter id="filter4_i_2001_223891" x="46.6698" y="155.697" width="6.70079" height="5.18726" filterUnits="userSpaceOnUse" color-interpolation-filters="sRGB">
<feFlood flood-opacity="0" result="BackgroundImageFix"/>
<feBlend mode="normal" in="SourceGraphic" in2="BackgroundImageFix" result="shape"/>
<feColorMatrix in="SourceAlpha" type="matrix" values="0 0 0 0 0 0 0 0 0 0 0 0 0 0 0 0 0 0 127 0" result="hardAlpha"/>
<feOffset dx="1.29368"/>
<feGaussianBlur stdDeviation="0.646841"/>
<feComposite in2="hardAlpha" operator="arithmetic" k2="-1" k3="1"/>
<feColorMatrix type="matrix" values="0 0 0 0 0.733333 0 0 0 0 0.929412 0 0 0 0 0.996078 0 0 0 1 0"/>
<feBlend mode="normal" in2="shape" result="effect1_innerShadow_2001_223891"/>
</filter>
<filter id="filter5_i_2001_223891" x="42.0632" y="153.796" width="6.27476" height="5.23657" filterUnits="userSpaceOnUse" color-interpolation-filters="sRGB">
<feFlood flood-opacity="0" result="BackgroundImageFix"/>
<feBlend mode="normal" in="SourceGraphic" in2="BackgroundImageFix" result="shape"/>
<feColorMatrix in="SourceAlpha" type="matrix" values="0 0 0 0 0 0 0 0 0 0 0 0 0 0 0 0 0 0 127 0" result="hardAlpha"/>
<feOffset dx="1.29368"/>
<feGaussianBlur stdDeviation="0.646841"/>
<feComposite in2="hardAlpha" operator="arithmetic" k2="-1" k3="1"/>
<feColorMatrix type="matrix" values="0 0 0 0 0.733333 0 0 0 0 0.929412 0 0 0 0 0.996078 0 0 0 1 0"/>
<feBlend mode="normal" in2="shape" result="effect1_innerShadow_2001_223891"/>
</filter>
<filter id="filter6_i_2001_223891" x="33.7402" y="149.903" width="5.8784" height="4.43677" filterUnits="userSpaceOnUse" color-interpolation-filters="sRGB">
<feFlood flood-opacity="0" result="BackgroundImageFix"/>
<feBlend mode="normal" in="SourceGraphic" in2="BackgroundImageFix" result="shape"/>
<feColorMatrix in="SourceAlpha" type="matrix" values="0 0 0 0 0 0 0 0 0 0 0 0 0 0 0 0 0 0 127 0" result="hardAlpha"/>
<feOffset dx="1.29368"/>
<feGaussianBlur stdDeviation="0.646841"/>
<feComposite in2="hardAlpha" operator="arithmetic" k2="-1" k3="1"/>
<feColorMatrix type="matrix" values="0 0 0 0 0.733333 0 0 0 0 0.929412 0 0 0 0 0.996078 0 0 0 1 0"/>
<feBlend mode="normal" in2="shape" result="effect1_innerShadow_2001_223891"/>
</filter>
<filter id="filter7_i_2001_223891" x="29.6697" y="147.466" width="5.58104" height="3.61963" filterUnits="userSpaceOnUse" color-interpolation-filters="sRGB">
<feFlood flood-opacity="0" result="BackgroundImageFix"/>
<feBlend mode="normal" in="SourceGraphic" in2="BackgroundImageFix" result="shape"/>
<feColorMatrix in="SourceAlpha" type="matrix" values="0 0 0 0 0 0 0 0 0 0 0 0 0 0 0 0 0 0 127 0" result="hardAlpha"/>
<feOffset dx="1.29368"/>
<feGaussianBlur stdDeviation="0.646841"/>
<feComposite in2="hardAlpha" operator="arithmetic" k2="-1" k3="1"/>
<feColorMatrix type="matrix" values="0 0 0 0 0.733333 0 0 0 0 0.929412 0 0 0 0 0.996078 0 0 0 1 0"/>
<feBlend mode="normal" in2="shape" result="effect1_innerShadow_2001_223891"/>
</filter>
<filter id="filter8_i_2001_223891" x="36.7655" y="150.384" width="7.13462" height="5.89233" filterUnits="userSpaceOnUse" color-interpolation-filters="sRGB">
<feFlood flood-opacity="0" result="BackgroundImageFix"/>
<feBlend mode="normal" in="SourceGraphic" in2="BackgroundImageFix" result="shape"/>
<feColorMatrix in="SourceAlpha" type="matrix" values="0 0 0 0 0 0 0 0 0 0 0 0 0 0 0 0 0 0 127 0" result="hardAlpha"/>
<feOffset dx="1.29368"/>
<feGaussianBlur stdDeviation="0.646841"/>
<feComposite in2="hardAlpha" operator="arithmetic" k2="-1" k3="1"/>
<feColorMatrix type="matrix" values="0 0 0 0 0.733333 0 0 0 0 0.929412 0 0 0 0 0.996078 0 0 0 1 0"/>
<feBlend mode="normal" in2="shape" result="effect1_innerShadow_2001_223891"/>
</filter>
<filter id="filter9_i_2001_223891" x="21.2451" y="141.937" width="4.7064" height="3.77002" filterUnits="userSpaceOnUse" color-interpolation-filters="sRGB">
<feFlood flood-opacity="0" result="BackgroundImageFix"/>
<feBlend mode="normal" in="SourceGraphic" in2="BackgroundImageFix" result="shape"/>
<feColorMatrix in="SourceAlpha" type="matrix" values="0 0 0 0 0 0 0 0 0 0 0 0 0 0 0 0 0 0 127 0" result="hardAlpha"/>
<feOffset dx="1.29368"/>
<feGaussianBlur stdDeviation="0.646841"/>
<feComposite in2="hardAlpha" operator="arithmetic" k2="-1" k3="1"/>
<feColorMatrix type="matrix" values="0 0 0 0 0.733333 0 0 0 0 0.929412 0 0 0 0 0.996078 0 0 0 1 0"/>
<feBlend mode="normal" in2="shape" result="effect1_innerShadow_2001_223891"/>
</filter>
<filter id="filter10_i_2001_223891" x="24.3546" y="143.972" width="4.23936" height="3.75806" filterUnits="userSpaceOnUse" color-interpolation-filters="sRGB">
<feFlood flood-opacity="0" result="BackgroundImageFix"/>
<feBlend mode="normal" in="SourceGraphic" in2="BackgroundImageFix" result="shape"/>
<feColorMatrix in="SourceAlpha" type="matrix" values="0 0 0 0 0 0 0 0 0 0 0 0 0 0 0 0 0 0 127 0" result="hardAlpha"/>
<feOffset dx="1.29368"/>
<feGaussianBlur stdDeviation="0.646841"/>
<feComposite in2="hardAlpha" operator="arithmetic" k2="-1" k3="1"/>
<feColorMatrix type="matrix" values="0 0 0 0 0.733333 0 0 0 0 0.929412 0 0 0 0 0.996078 0 0 0 1 0"/>
<feBlend mode="normal" in2="shape" result="effect1_innerShadow_2001_223891"/>
</filter>
<filter id="filter11_i_2001_223891" x="26.7258" y="145.242" width="5.3823" height="4.01855" filterUnits="userSpaceOnUse" color-interpolation-filters="sRGB">
<feFlood flood-opacity="0" result="BackgroundImageFix"/>
<feBlend mode="normal" in="SourceGraphic" in2="BackgroundImageFix" result="shape"/>
<feColorMatrix in="SourceAlpha" type="matrix" values="0 0 0 0 0 0 0 0 0 0 0 0 0 0 0 0 0 0 127 0" result="hardAlpha"/>
<feOffset dx="1.29368"/>
<feGaussianBlur stdDeviation="0.646841"/>
<feComposite in2="hardAlpha" operator="arithmetic" k2="-1" k3="1"/>
<feColorMatrix type="matrix" values="0 0 0 0 0.733333 0 0 0 0 0.929412 0 0 0 0 0.996078 0 0 0 1 0"/>
<feBlend mode="normal" in2="shape" result="effect1_innerShadow_2001_223891"/>
</filter>
<filter id="filter12_i_2001_223891" x="56.9183" y="159.288" width="6.2794" height="3.28589" filterUnits="userSpaceOnUse" color-interpolation-filters="sRGB">
<feFlood flood-opacity="0" result="BackgroundImageFix"/>
<feBlend mode="normal" in="SourceGraphic" in2="BackgroundImageFix" result="shape"/>
<feColorMatrix in="SourceAlpha" type="matrix" values="0 0 0 0 0 0 0 0 0 0 0 0 0 0 0 0 0 0 127 0" result="hardAlpha"/>
<feOffset dx="1.29368"/>
<feGaussianBlur stdDeviation="0.646841"/>
<feComposite in2="hardAlpha" operator="arithmetic" k2="-1" k3="1"/>
<feColorMatrix type="matrix" values="0 0 0 0 0.733333 0 0 0 0 0.929412 0 0 0 0 0.996078 0 0 0 1 0"/>
<feBlend mode="normal" in2="shape" result="effect1_innerShadow_2001_223891"/>
</filter>
<filter id="filter13_i_2001_223891" x="61.9891" y="161.177" width="6.0681" height="3.80615" filterUnits="userSpaceOnUse" color-interpolation-filters="sRGB">
<feFlood flood-opacity="0" result="BackgroundImageFix"/>
<feBlend mode="normal" in="SourceGraphic" in2="BackgroundImageFix" result="shape"/>
<feColorMatrix in="SourceAlpha" type="matrix" values="0 0 0 0 0 0 0 0 0 0 0 0 0 0 0 0 0 0 127 0" result="hardAlpha"/>
<feOffset dx="1.29368"/>
<feGaussianBlur stdDeviation="0.646841"/>
<feComposite in2="hardAlpha" operator="arithmetic" k2="-1" k3="1"/>
<feColorMatrix type="matrix" values="0 0 0 0 0.733333 0 0 0 0 0.929412 0 0 0 0 0.996078 0 0 0 1 0"/>
<feBlend mode="normal" in2="shape" result="effect1_innerShadow_2001_223891"/>
</filter>
<linearGradient id="paint0_linear_2001_223891" x1="81.5073" y1="97.8214" x2="132.524" y2="171.233" gradientUnits="userSpaceOnUse">
<stop stop-color="#6C6C6C" stop-opacity="0.59"/>
<stop offset="1" stop-color="#C4C4C4" stop-opacity="0.08"/>
</linearGradient>
<clipPath id="clip0_2001_223891">
<rect width="215" height="166" fill="white" transform="translate(13 37)"/>
</clipPath>
</defs>
</svg>