<svg width="1288" height="1288" preserveAspectRatio="xMidYMid" version="1.1" viewBox="0 0 1288 1288" xmlns="http://www.w3.org/2000/svg" xmlns:cc="http://creativecommons.org/ns#" xmlns:dc="http://purl.org/dc/elements/1.1/" xmlns:rdf="http://www.w3.org/1999/02/22-rdf-syntax-ns#">
 <title>Ansible</title>
 <metadata>
  <rdf:RDF>
   <cc:Work rdf:about="">
    <dc:format>image/svg+xml</dc:format>
    <dc:type rdf:resource="http://purl.org/dc/dcmitype/StillImage"/>
    <dc:title>Ansible</dc:title>
    <cc:license rdf:resource="http://creativecommons.org/licenses/by/4.0/"/>
    <dc:creator>
     <cc:Agent>
      <dc:title>L3D &lt;l3d@c3woc.de&gt;</dc:title>
     </cc:Agent>
    </dc:creator>
    <dc:source>https://github.com/do1jlr/do1jlr.git</dc:source>
   </cc:Work>
   <cc:License rdf:about="http://creativecommons.org/licenses/by/4.0/">
    <cc:permits rdf:resource="http://creativecommons.org/ns#Reproduction"/>
    <cc:permits rdf:resource="http://creativecommons.org/ns#Distribution"/>
    <cc:requires rdf:resource="http://creativecommons.org/ns#Notice"/>
    <cc:requires rdf:resource="http://creativecommons.org/ns#Attribution"/>
    <cc:permits rdf:resource="http://creativecommons.org/ns#DerivativeWorks"/>
   </cc:License>
  </rdf:RDF>
 </metadata>
 <g transform="translate(34.881 -.00096252)">
  <g fill="#def1fe">
   <path d="m371.33 1264.9c-2.1539 0-4.4794-0.5444-6.094-2.7279l-69.143-90.931v92.751h-15.768v-114.21c0-4.5444 3.7624-8.1821 8.0656-8.1821 2.5046 0 4.657 0.7263 6.264 2.9099l68.969 90.75v-92.388h15.767v114.03c0 4.7295-3.7624 8.0017-8.0594 8.0017" style="paint-order:stroke fill markers"/>
   <path d="m501.75 1266c-15.762 0-32.245-3.2753-47.652-9.0919l3.764-13.097c14.152 4.5475 29.557 7.8213 43.888 7.8213 19.886 0 30.275-7.0935 30.275-17.094 0-9.095-8.064-13.641-35.83-26.736-27.766-13.094-38.69-21.458-38.69-37.828 0-20.546 15.762-28.917 45.497-28.917 12.363 0 31.349 2.5491 42.281 5.8228l-2.5094 13.456c-12.006-2.9083-27.049-4.9084-39.412-4.9084-20.955 0-29.555 3.9986-29.555 14.004 0 9.8182 6.2671 14.002 35.646 27.643 30.992 14.367 38.874 21.643 38.874 36.553 0 21.644-20.425 32.372-46.577 32.372" style="paint-order:stroke fill markers"/>
   <path d="m623.03 1142.9h16.301v121.12h-16.301z" style="paint-order:stroke fill markers"/>
   <path d="m778 1209.1h-40.49v41.104h40.49c13.792 0 22.211-8.7312 22.211-20.918 0-11.458-8.7763-20.186-22.211-20.186m-7.8864-52.378h-32.604v38.738h32.604c13.08 0 22.573-8.3673 22.573-20.005 0-11.458-8.2418-18.733-22.573-18.733m8.064 107.3h-48.724c-4.6601 0-8.2433-3.6393-8.2433-8.1838v-104.75c0-4.3672 3.5832-8.1837 8.2433-8.1837h40.305c24.721 0 39.409 12.184 39.409 31.281 0 10.364-6.0909 20.004-15.408 25.642 13.8 4.1836 23.109 15.64 23.109 29.461 0 19.277-15.94 34.737-38.69 34.737" style="paint-order:stroke fill markers"/>
   <path d="m895.15 1264c-4.4716 0-8.0564-3.8196-8.0564-8.1837v-112.94h16.298v106.39h64.849v14.73z" style="paint-order:stroke fill markers"/>
   <path d="m1079.4 1266c-33.321 0-53.384-12.366-53.384-37.281 0-11.821 6.6302-23.097 19.529-28.371-10.391-6.5476-15.764-15.823-15.764-26.007 0-22.55 17.381-33.284 49.98-33.284 10.929 0 26.332 1.2753 39.233 4.1868l-1.7939 13.456c-13.611-2.1836-26.335-3.4527-38.695-3.4527-21.139 0-32.426 5.8167-32.426 19.822 0 11.095 10.393 19.823 24.189 19.823h27.942c3.9417 0 6.9856 3.0918 6.9856 6.9099 0 4.0001-3.0439 7.092-6.9856 7.092h-30.09c-15.77 0-25.796 7.8182-25.796 19.825 0 17.64 16.301 22.914 36.722 22.914 11.108 0 26.15-1.451 38.33-4.3625l2.3348 13.274c-11.647 3.2754-26.876 5.4558-40.311 5.4558" style="paint-order:stroke fill markers"/>
   <path d="m159.01 1165.6 28.55 71.533-43.119-34.482zm50.719 88.013-43.911-107.29c-1.2531-3.0919-3.7624-4.7296-6.8079-4.7296s-5.7325 1.6377-6.9856 4.7296l-48.199 117.68h16.485l19.082-48.519 56.935 46.699c2.2899 1.8777 3.9416 2.728 6.094 2.728 4.297 0 8.0594-3.2723 8.0594-8.0002 0-0.7671-0.27048-1.9875-0.75246-3.3005z" style="paint-order:stroke fill markers"/>
  </g>
  <path d="m342.31 880.51c0.0944-0.25629 5.9551-10.469 13.042-22.633 7.11-12.227 18.825-32.438 26.053-44.985 7.2918-12.524 13.328-22.818 13.439-22.923 0.0876-0.0406 4.2384 0.53926 9.1582 1.4017 15.99 2.603 32.468 4.076 48.681 4.2879 7.9434 0.1551 8.2232 0.18491 8.8887 1.7392 0.34128 0.85289 8.1077 22.476 17.267 48.03 9.1589 25.554 16.861 47.154 17.266 48.03 0.62506 1.4664 2.3173 1.2154 36.341-4.6853 19.585-3.423 35.81-6.408 36.056-6.6814 0.2459-0.27342 0.44788-23.988 0.52082-52.696l0.093-52.126 3.4108-1.3654c24.664-9.9224 28.496-11.642 53.824-24.958l3.2251-1.6519 39.06 33.052c21.455 18.215 39.678 33.351 40.423 33.698 1.1704 0.57564 5.1528-2.5438 29.215-22.508 26.525-22.115 27.812-23.242 27.099-24.668-0.40534-0.87649-11.933-20.972-25.618-44.698s-25.132-43.646-25.439-44.195c-0.40535-0.8764 0.50366-2.361 4.7203-7.5041 11.309-13.958 19.772-25.906 28.054-39.74 2.6394-4.4132 4.9087-8.0168 4.9963-8.0574 0.15174-0.0157 11.903 2.0468 26.167 4.5974 14.24 2.6146 37.224 6.7697 51.143 9.2666 13.856 2.4734 25.432 4.6183 25.688 4.7125 0.2563 0.0944 6.234-15.386 13.227-34.422 6.9928-19.036 12.458-34.705 12.202-34.799-0.25629-0.0944-10.467-5.9565-22.627-13.045-12.224-7.1117-32.43-18.83-44.975-26.059-12.521-7.2935-22.813-13.331-22.918-13.442-0.0406-0.0876 0.56266-4.3035 1.4079-9.3762 2.643-15.906 3.9284-30.492 4.3443-48.454 0.11566-6.6502 0.38387-8.3704 1.2601-8.7758 0.58982-0.21965 22.208-7.9879 47.995-17.206 25.787-9.2186 47.581-17.068 48.457-17.473 1.4661-0.62517 1.2151-2.3178-4.684-36.349-5.4143-30.798-6.4301-35.754-7.6947-36.073-0.79253-0.21875-24.477-0.48468-52.619-0.49739l-51.163-0.10736-1.3886-3.3475c-10.684-26.551-12.491-30.343-24.864-53.878l-1.7155-3.2494 33.67-39.785c18.528-21.926 33.724-40.129 33.714-40.497-9e-3 -0.36756-10.443-13.15-23.153-28.442-22.11-26.531-23.237-27.818-24.662-27.105-0.87628 0.40544-20.728 11.878-44.249 25.422-23.521 13.543-43.437 24.993-44.249 25.422-1.5131 0.75333-1.7459 0.59503-7.8998-4.4311-12.494-10.339-26.005-19.887-39.876-28.259-4.3075-2.5289-7.8462-4.7751-7.8867-4.8628-0.0157-0.15182 2.0463-11.906 4.5963-26.173 2.6141-14.243 6.7681-37.233 9.2644-51.156 2.4728-13.859 4.6171-25.438 4.7113-25.694 0.0944-0.2565-15.319-6.212-34.286-13.183l-34.474-12.67-10.207 17.491c-5.585 9.6597-17.458 30.103-26.37 45.451-8.847 15.372-16.226 27.937-16.402 28.018-0.0876 0.0406-4.7982-0.59949-10.429-1.5051-17.453-2.7771-29.126-3.8664-47.387-4.2485-6.6487-0.11562-8.3684-0.38393-8.7737-1.2604-0.21943-0.58995-7.9861-22.213-17.202-48.007-9.2164-25.793-17.064-47.592-17.469-48.468-0.62497-1.4664-2.3173-1.2154-36.341 4.6852-19.585 3.423-35.81 6.408-36.056 6.6814-0.29319 0.40155-0.50361 33.642-0.5764 93.632l0.0269 11.213-5.4837 2.0585c-18.379 7.0674-32.988 13.774-49.946 23.11l-5.0313 2.8067-10.277-8.6512c-39.246-33.338-69.362-58.665-69.811-58.83-0.32037-0.11776-9.4845 7.2081-20.387 16.296-10.862 9.1753-23.425 19.617-27.923 23.347-6.5798 5.4385-8.0956 6.991-7.6667 7.8034 0.28373 0.61352 11.811 20.709 25.618 44.698s25.334 44.084 25.642 44.634c0.40534 0.87646-0.50369 2.361-4.7203 7.504-11.175 13.789-21.172 27.938-29.003 41.137-2.2758 3.8194-4.4208 6.8867-4.6771 6.7925-0.25643-0.0944-15.441-2.9104-33.784-6.2331-18.344-3.3227-41.199-7.4306-50.735-9.1894-9.5596-1.6947-17.592-3.1918-17.848-3.286-0.32037-0.11767-6.234 15.386-13.227 34.422-6.9929 19.036-12.458 34.705-12.202 34.799 0.25643 0.0944 10.339 5.9095 22.33 12.863 12.056 6.977 32.302 18.783 45.079 26.17l23.197 13.472-1.362 7.8653c-2.5291 15.002-4.092 32.324-4.4779 50.005-0.11563 6.6503-0.38385 8.3704-1.2601 8.7758-0.58984 0.21965-22.383 8.069-48.433 17.409-26.05 9.3402-47.843 17.19-48.457 17.473-0.8527 0.34131-0.70239 2.5062 0.79161 10.912 1.0131 5.7556 3.8287 21.849 6.1672 35.876 2.4261 13.986 4.668 25.504 4.9884 25.622 0.44857 0.16496 39.794 0.36684 91.283 0.37623l13.432 0.0628 2.0175 5.3973c6.88 18.097 13.673 32.669 23.104 49.957l2.8466 5.12-7.2784 8.5281c-38.776 45.765-60.133 71.234-60.17 71.73 0.01031 0.36758 10.443 13.15 23.153 28.442 22.11 26.531 23.237 27.818 24.662 27.105 0.87624-0.40541 20.967-11.936 44.687-25.624s43.636-25.138 44.185-25.445c0.87622-0.40548 2.3605 0.50378 7.5023 4.7214 14.164 11.534 23.765 18.264 38.863 27.45 4.8777 2.9566 8.8819 5.5195 8.9224 5.6071 0.0811 0.17549-2.4284 14.53-5.6364 31.974-3.144 17.468-7.3281 40.737-9.3246 51.715l-3.543 19.94 34.474 12.67c18.967 6.971 34.569 12.414 34.663 12.157zm13.855-185.21c-42.88-17.506-83.509-50.843-110.95-90.973-36.316-52.994-51.557-117.23-43.086-180.68 2.7034-20.03 6.3324-34.265 13.796-54.582 7.4637-20.318 13.912-33.516 24.818-50.532 51.168-79.694 142.03-125.09 236.5-118.15 27.692 2.0297 53.654 8.3708 80.872 19.611 101.98 42.136 165.73 146.17 157.69 257.14-1.9586 27.506-8.3047 53.691-19.542 80.915-31.447 76.103-98.724 132.93-179.6 151.73-39.283 9.1324-78.868 8.988-119.31-0.49359-6.4341-1.4917-26.611-7.7433-29.825-9.2884-1.0658-0.46444-6.162-2.6284-11.369-4.6878z" fill="#068de9" stroke-linecap="round" stroke-width="16.111" style="paint-order:stroke fill markers">
   <animateTransform attributeName="transform" begin="0" dur="18s" from="0 460 460" repeatCount="indefinite" to="360 460 460" type="rotate"/>
  </path>
  <path d="m910.68 603.27c-1.354 0.41668-6.6054 1.7561-11.732 3.0861-25.462 6.3856-32.657 12.027-32.767 25.636-0.0657 7.4979 1.8236 15.038 8.2326 32.438 3.8638 10.351 4.4641 14.147 2.8791 17.351-1.0437 2.0304-2.6636 3.0968-12.767 8.5791-2.2366 1.2386-8.7223 6.26-14.573 11.36-12.409 10.819-17.111 14.447-18.739 14.569-0.62611 0.0471-5.2929-2.5614-10.32-5.7724-20.844-13.418-29.491-17.05-38.946-16.339-6.5117 0.48974-12.177 4.6938-17.103 12.872-3.3566 5.6046-12.219 23.398-14.265 28.841-3.4341 8.7587-2.5372 16.499 2.5233 22.667 3.7483 4.6295 11.171 9.5493 26.052 17.371 6.9477 3.6333 12.914 6.7737 13.241 6.938 0.39449 0.22234-0.0338 2.899-1.1382 6.6341-3.8073 13.006-5.7283 26.814-6.1238 44.159-0.23886 10.219-0.75678 11.706-4.7183 13.452-1.3399 0.6045-7.5648 2.395-13.862 4.0649-17.899 4.8093-23.209 7.0347-27.638 11.776-6.1754 6.6351-6.316 15.65-0.69281 33.487 1.1498 3.5656 2.8022 8.7935 3.7123 11.684 2.467 7.6853 6.568 14.492 10.709 17.644 4.8142 3.7307 8.4632 4.5268 16.974 3.8237 7.1284-0.66191 11.763-1.8292 30.579-7.8408 4.8569-1.5616 8.9188-2.8116 8.986-2.7537 10.037 16.246 23.25 31.183 35.919 40.557 5.6032 4.1751 5.8362 3.0872-6.8337 25.512-8.4528 14.866-10.898 20.024-11.894 25.2-0.71924 3.832 0.21001 9.4921 2.083 12.626 4.8072 7.8241 29.597 22.646 45.419 27.06 6.8832 1.938 12.8 0.2338 18.81-5.2556 3.357-3.0859 7.8871-10.668 14.102-23.477 4.6345-9.5417 11.989-23.947 12.727-25.011 0.11565-0.13448 2.4075 0.19701 5.1517 0.68302 12.074 2.3032 24.165 3.1569 38.372 2.8441 12.57-0.31569 12.637-0.25764 13.724 5.8312 1.1785 6.4599 9.3324 37.015 11.14 41.791 3.2843 8.5053 7.0326 13.135 12.696 15.605 3.0605 1.344 3.8839 1.408 10.829 0.8227 8.7031-0.6546 15.925-2.583 30.507-7.9614 11.025-4.1034 13.382-5.4141 16.731-9.444 3.9813-4.833 4.8837-8.7418 4.1491-18.509-0.6088-7.2584-0.9381-9.1226-3.6117-17.044-1.6289-4.9147-4.8021-13.617-6.9932-19.309-2.1958-5.7537-4.1755-11.146-4.4292-12.008-0.5358-2.1005 1.2827-3.8744 9.0348-8.8022 7.6269-4.9183 19.465-14.12 25.634-19.999 2.706-2.5333 5.523-5.2638 6.2899-5.9512l1.4132-1.3026 14.062 8.6393c23.428 14.295 28.596 16.865 37.011 18.247 8.1604 1.3382 14.892-1.2458 20.37-7.9546 3.1752-3.8278 15.114-24.245 17.629-30.165 5.7733-13.657 4.5726-21.249-4.6504-29.182-4.9097-4.1644-11.486-7.8885-25.186-14.225-15.066-6.9266-17.034-7.975-17.917-9.6716-1.2387-2.2366-1.1996-2.5544 0.7007-9.9385 3.1798-12.14 4.8307-22.842 5.5121-35.55 0.4475-8.2823 1.1593-10.54 3.8793-12.885 3.4291-2.9655 7.9151-4.4362 23.283-7.7329 6.0748-1.2754 12.261-2.7481 13.673-3.2321 11.232-3.8671 16.403-8.7896 17.558-16.873 1.4662-9.8072-7.2511-40.32-14.457-50.734-7.3451-10.593-18.069-10.857-45.468-0.92511-17.41 6.2838-19.004 6.0258-25.342-4.5796-4.7587-8.0167-6.9789-10.746-14.873-18.59-7.8847-7.7186-11.436-12.237-12.922-16.092-1.5051-4.1056-1.2971-4.6879 5.9808-16.758 11.542-19.002 14.732-28.498 12.382-37.137-2.0193-7.593-7.034-12.316-23.049-21.816-16.011-9.4372-22.18-11.933-28.942-11.424-10.331 0.77697-16.879 8.3217-28.614 33.132-7.0128 14.758-8.224 16.234-13.108 16.602-1.5653 0.11766-6.2787-0.59821-10.577-1.6602-6.927-1.6828-9.0841-1.8984-19.732-1.9792-14.933-0.13627-19.96-0.82863-22.98-3.309-2.2075-1.723-2.2889-1.9687-4.7268-12.616-5.0326-22.541-8.5625-30.965-15.462-37.31-4.5341-4.1926-8.8031-5.6976-15.584-5.4395-3.0148 0.10108-6.5696 0.55701-7.9235 0.97374zm63.912 162.43c13.896 1.4107 26.215 6.9697 36.239 16.353 11.794 11.14 19.07 28.349 19.526 46.134 0.1643 8.0474-0.9065 14.739-3.4753 21.607-7.8036 20.988-28.347 37.519-53.012 42.774-7.8717 1.6624-22.753 2.215-29.079 0.99062-19.989-3.723-34.279-13.73-43.602-30.534-6.9809-12.446-10.123-30.785-7.5916-44.009 2.3517-12.266 9.6498-24.905 19.267-33.499 16.823-14.929 39.199-22.153 61.728-19.817z" fill="#def1fe" stroke-linecap="round" stroke-width="15.969" style="paint-order:stroke fill markers">
   <animateTransform attributeName="transform" begin="0" dur="7s" from="0 960 825" repeatCount="indefinite" to="-360 960 825" type="rotate"/>
  </path>
  <circle cx="700.91" cy="637.07" r="416.19" fill="#191919" style="paint-order:stroke fill markers"/>
  <circle cx="700.91" cy="637.07" r="400.52" fill="#068de9" stroke-linecap="round" stroke-width="16.221" style="paint-order:stroke fill markers">
   <animate attributeName="r" begin="23s" dur="10s" repeatCount="indefinite" values="400;415;399;420;400"/>
  </circle>
  <ellipse cx="702.03" cy="637.07" rx="388.2" ry="400.52" fill="#def1fe" style="paint-order:stroke fill markers"/>
  <path d="m699.67 455.06 110.74 273.32-167.27-131.76zm196.73 336.29-170.34-409.95c-4.8626-11.823-14.586-18.079-26.387-18.079-11.823 0-22.254 6.2561-27.117 18.079l-186.96 449.66h63.958l74.011-185.4 220.87 178.43c8.8829 7.1828 15.292 10.431 23.624 10.431 16.686 0 31.27-12.509 31.27-30.564 0-2.9385-1.0379-7.6023-2.9166-12.618z" stroke-width="3.3547"/>
 </g>
</svg>
